<svg xmlns="http://www.w3.org/2000/svg" xmlns:xlink="http://www.w3.org/1999/xlink" version="1.1" x="0px" y="0px" viewBox="0 0 512 512" xml:space="preserve"><g><g><path d="M256,361.382l-87.459,69.471c-11.283,8.962-4.953,27.146,9.45,27.146h156.019c14.403,0,20.733-18.184,9.45-27.146    L256,361.382z" fill="#fec360"/><g><polygon points="241.628,210.921 184.323,180.614 184.323,249.445 241.817,283.075    " fill="#fec360"/><polygon points="255.745,186.445 312.703,156.515 256,123.349 199.229,156.555    " fill="#fec360"/><path d="M442.796,54H69.204C60.807,54,54,60.807,54,69.204v276.311c0,8.397,6.807,15.204,15.204,15.204h373.591     c8.397,0,15.204-6.807,15.204-15.204V69.204C458,60.807,451.193,54,442.796,54z M355.914,257.543     c0,5.015-2.661,9.654-6.99,12.186l-85.796,50.183c-4.361,2.551-9.896,2.551-14.256,0l-85.796-50.183     c-4.329-2.532-6.99-7.171-6.99-12.186V157.176c0-5.015,2.661-9.654,6.99-12.186l85.796-50.183c4.403-2.576,9.853-2.576,14.256,0     l85.796,50.183c4.329,2.532,6.99,7.171,6.99,12.186V257.543z" fill="#fec360"/><polygon points="269.865,210.922 270.054,283.15 327.677,249.445 327.677,180.544    " fill="#fec360"/></g></g></g></svg>