<svg xmlns="http://www.w3.org/2000/svg" xmlns:xlink="http://www.w3.org/1999/xlink" version="1.1" x="0px" y="0px" viewBox="0 0 100 100" enable-background="new 0 0 100 100" xml:space="preserve"><polygon points="63.03,38.67 60.79,38.67 53.38,31.12 45.96,38.67 43.71,38.67 53.38,28.84 " fill="#fec360"/><path d="M53.37,32.21l-6.4,6.55v9.87h12.81v-9.87L53.37,32.21z M58.17,47.03h-9.6v-7.62l4.8-4.91l4.8,4.91V47.03z" fill="#fec360"/><path d="M69.07,8.58h-25.5c-2.62,0-4.89,1.57-5.89,3.82c-1.56,0.69-2.75,1.95-3.36,3.47c-2.4,0.98-4.01,3.34-4.01,5.96v48.9h32.94  V67.2h3.53V63.93h3.27V21.4c3.101-0.47,5.47-3.15,5.47-6.37C75.52,11.47,72.63,8.58,69.07,8.58z M61.28,68.77H32.27V21.83  c0-1.33,0.6-2.57,1.57-3.4V67.2h27.44V68.77z M64.82,65.24H35.81V18.3c0-1.22,0.48-2.35,1.31-3.17v48.8h27.7V65.24z M68.09,61.96  H39.08V15.03c0-2.48,2.01-4.49,4.49-4.49c2.28,0,4.17,1.71,4.45,3.92c-0.34-0.02-0.9-0.06-1.62-0.1c-0.58-0.04-1.26-0.06-1.99-0.1  c-0.09,0-0.18-0.01-0.28-0.01h-0.37c-0.25,0.03-0.51,0.07-0.75,0.16c-0.49,0.17-0.95,0.46-1.31,0.83c-0.36,0.37-0.63,0.82-0.81,1.3  c-0.05,0.11-0.08,0.24-0.11,0.36c-0.04,0.11-0.06,0.25-0.08,0.39c-0.03,0.16-0.03,0.24-0.04,0.33l-0.01,0.07v0.3  c0.02,0.49,0.12,0.96,0.3,1.38c0.18,0.41,0.43,0.78,0.71,1.07c0.27,0.3,0.59,0.51,0.88,0.67c0.3,0.16,0.59,0.24,0.83,0.3  c0.06,0.01,0.13,0.02,0.2,0.03v0.04h24.52V61.96z M48.01,15.61c-0.26,2.06-1.94,3.69-4.02,3.88h-0.07l-0.01-0.01  c-0.03-0.01-0.04-0.01-0.08-0.02c-0.18-0.06-0.44-0.18-0.69-0.43c-0.24-0.26-0.47-0.66-0.52-1.15l-0.01-0.09v-0.08  c0-0.09,0-0.2,0.01-0.23c0-0.08,0.02-0.23,0.06-0.35c0.06-0.25,0.18-0.49,0.34-0.69c0.16-0.2,0.36-0.36,0.58-0.47  c0.11-0.05,0.23-0.09,0.35-0.12l0.18-0.03c0.1,0,0.19,0,0.28-0.01c0.73-0.04,1.41-0.06,1.99-0.1  C47.12,15.67,47.68,15.64,48.01,15.61z M69.07,19.51H48.2c1.12-1.16,1.82-2.74,1.82-4.48c0-1.74-0.7-3.33-1.82-4.49h20.87  c2.47,0,4.489,2.01,4.489,4.49C73.56,17.5,71.54,19.51,69.07,19.51z" fill="#fec360"/><polygon points="45.96,38.67 43.71,38.67 53.38,28.84 63.03,38.67 60.79,38.67 53.38,31.12 " fill="#fec360"/><path d="M53.37,32.21l-6.4,6.55v9.87h12.81v-9.87L53.37,32.21z M58.17,47.03h-9.6v-7.62l4.8-4.91l4.8,4.91V47.03z" fill="#fec360"/><polygon points="63.03,38.67 60.79,38.67 53.38,31.12 45.96,38.67 43.71,38.67 53.38,28.84 " fill="#fec360"/><path d="M53.37,32.21l-6.4,6.55v9.87h12.81v-9.87L53.37,32.21z M58.17,47.03h-9.6v-7.62l4.8-4.91l4.8,4.91V47.03z" fill="#fec360"/><polygon points="26.969,64.619 24.729,64.619 17.318,57.069 9.898,64.619 7.648,64.619 17.318,54.789 " fill="#fec360"/><path d="M17.309,58.159l-6.4,6.55v9.87h12.81v-9.87L17.309,58.159z M22.108,72.979h-9.6v-7.62l4.8-4.91l4.8,4.91V72.979z" fill="#fec360"/><polygon points="91.078,64.619 88.838,64.619 81.428,57.069 74.008,64.619 71.758,64.619 81.428,54.789 " fill="#fec360"/><path d="M81.418,58.159l-6.4,6.55v9.87h12.811v-9.87L81.418,58.159z M86.217,72.979h-9.6v-7.62l4.801-4.91l4.799,4.91V72.979z" fill="#fec360"/><polygon points="87.67,80.64 87.67,82.61 51.92,82.61 51.92,84.5 46.17,84.5 46.17,82.61 11,82.61 11,80.64 16.33,80.64   16.33,75.77 18.3,75.77 18.3,80.64 46.17,80.64 46.17,78.75 48.04,78.75 48.04,71.92 50,71.92 50,78.75 51.92,78.75 51.92,80.64   80.37,80.64 80.37,75.77 82.33,75.77 82.33,80.64 " fill="#fec360"/></svg>