<svg xmlns="http://www.w3.org/2000/svg" viewBox="0 0 68 70" x="0px" y="0px"><path d="M556,216.763932 L569.105573,210.211146 C569.668628,209.929618 570.331372,209.929618 570.894427,210.211146 L583.999781,216.763822 L569.999781,223.763822 L556,216.763932 Z M555.105573,236.788854 C554.428005,236.45007 554,235.757544 554,235 L554,220.236068 L568,227.236068 L568,243.236068 L555.105573,236.788854 Z M586,220.235849 L586,235 C586,235.757544 585.571995,236.45007 584.894427,236.788854 L572,243.236068 L572,227.235849 L586,220.235849 Z M592,237 C590.895431,237 590,236.104569 590,235 C590,233.895431 590.895431,233 592,233 L602,233 C603.104569,233 604,233.895431 604,235 C604,236.104569 603.104569,237 602,237 L592,237 Z M538,237 C536.895431,237 536,236.104569 536,235 C536,233.895431 536.895431,233 538,233 L548,233 C549.104569,233 550,233.895431 550,235 C550,236.104569 549.104569,237 548,237 L538,237 Z M538,178 C536.895431,178 536,177.104569 536,176 C536,174.895431 536.895431,174 538,174 L602,174 C603.104569,174 604,174.895431 604,176 C604,177.104569 603.104569,178 602,178 L538,178 Z M572,191.441518 L572,196 C572,197.104569 571.104569,198 570,198 C568.895431,198 568,197.104569 568,196 L568,191.441518 L560.367544,188.897367 C559.55086,188.625139 559,187.860861 559,187 L559,181 L581,181 L581,187 C581,187.860861 580.44914,188.625139 579.632456,188.897367 L572,191.441518 Z" transform="translate(-536 -174)" fill="#fec360"/></svg>